<svg id="Capa_1" data-name="Capa 1" xmlns="http://www.w3.org/2000/svg" viewBox="0 0 68.01 64.2">
  <defs>
    <style>
      .cls-1 {
        fill: #f3d6ed;
      }

      .cls-2 {
        fill: #7f8ed4;
      }

      .cls-12, .cls-16, .cls-3, .cls-4, .cls-5, .cls-6, .cls-7, .cls-9 {
        fill: none;
      }

      .cls-3 {
        stroke: #5656bd;
      }

      .cls-16, .cls-3, .cls-4, .cls-5, .cls-6, .cls-7, .cls-9 {
        stroke-miterlimit: 10;
      }

      .cls-4, .cls-6 {
        stroke: #bdf5ea;
      }

      .cls-5 {
        stroke: #7f8ed4;
      }

      .cls-6, .cls-9 {
        stroke-width: 0.75px;
      }

      .cls-16, .cls-7, .cls-9 {
        stroke: #f5ffdc;
      }

      .cls-8 {
        fill: #bdf5ea;
      }

      .cls-10 {
        fill: #f5ffdc;
      }

      .cls-11 {
        fill: #5656bd;
      }

      .cls-12 {
        stroke: #fff;
        stroke-linecap: round;
        stroke-linejoin: round;
        stroke-width: 2px;
      }

      .cls-13 {
        fill: #7272d3;
      }

      .cls-14 {
        fill: #98a8e1;
      }

      .cls-15 {
        fill: #e0e0e0;
      }

      .cls-16 {
        stroke-width: 0.12px;
      }
    </style>
  </defs>
  <g>
    <g>
      <circle class="cls-1" cx="34.26" cy="31.65" r="25.09"/>
      <circle class="cls-2" cx="5.08" cy="4.06" r="1.38"/>
      <circle class="cls-3" cx="54.11" cy="60.19" r="2.63"/>
      <circle class="cls-2" cx="6.45" cy="61.42" r="0.56"/>
      <path class="cls-4" d="M55.31,6.68a3.2,3.2,0,0,1,1.26,3"/>
      <path class="cls-5" d="M1.42,17.41a4,4,0,0,0-.8,3.52"/>
      <path class="cls-1" d="M54.08,49.81A1.93,1.93,0,0,1,56,48.69"/>
      <path class="cls-6" d="M15.26,53.3a2.77,2.77,0,0,1,1.25,2.83"/>
      <path class="cls-7" d="M34.16,1.89A1.57,1.57,0,0,1,32,2"/>
      <polygon class="cls-8" points="30.51 61.42 30.74 62.81 30.98 64.2 29.66 63.71 28.33 63.22 29.42 62.32 30.51 61.42"/>
      <polygon class="cls-9" points="19.42 4.04 19.66 5.44 19.89 6.83 18.57 6.34 17.25 5.84 18.33 4.95 19.42 4.04"/>
      <polygon class="cls-10" points="3.34 46.61 3.57 48 3.81 49.39 2.48 48.9 1.16 48.41 2.25 47.51 3.34 46.61"/>
      <polygon class="cls-11" points="67.54 20.93 67.78 22.32 68.01 23.71 66.69 23.22 65.36 22.73 66.45 21.83 67.54 20.93"/>
      <polygon class="cls-8" points="65.21 0 65.33 0.7 65.44 1.39 64.78 1.15 64.12 0.9 64.67 0.45 65.21 0"/>
    </g>
    <g>
      <g>
        <rect class="cls-12" x="3.24" y="30.79" width="62.02" height="23.99"/>
        <rect class="cls-12" x="3.24" y="31" width="8.92" height="23.77"/>
        <rect class="cls-12" x="56.35" y="31" width="8.92" height="23.77"/>
        <rect class="cls-12" x="3.24" y="51.05" width="62.02" height="3.72"/>
        <polygon class="cls-12" points="67.09 31 1.42 31 4.13 27.03 64.38 27.03 67.09 31"/>
        <polygon class="cls-12" points="34.26 9.27 22.11 18.57 22.11 54.78 46.4 54.78 46.4 18.57 34.26 9.27"/>
        <polygon class="cls-12" points="48.84 21.14 34.26 10.01 19.67 21.14 18.96 20.21 34.26 8.53 49.56 20.21 48.84 21.14"/>
        <rect class="cls-12" x="20.59" y="36.55" width="27.34" height="2.12"/>
        <g>
          <g>
            <rect class="cls-12" x="42.75" y="50.05" width="4.73" height="4.73"/>
            <rect class="cls-12" x="43.47" y="39.79" width="3.3" height="10.22"/>
            <rect class="cls-12" x="42.75" y="38.67" width="4.73" height="1.12"/>
            <line class="cls-12" x1="43.96" y1="40.31" x2="43.96" y2="49.06"/>
            <line class="cls-12" x1="45.11" y1="40.31" x2="45.11" y2="49.06"/>
            <line class="cls-12" x1="46.26" y1="40.31" x2="46.26" y2="49.06"/>
          </g>
          <g>
            <rect class="cls-12" x="21.03" y="50.05" width="4.73" height="4.73"/>
            <rect class="cls-12" x="21.75" y="39.79" width="3.3" height="10.22"/>
            <rect class="cls-12" x="21.03" y="38.67" width="4.73" height="1.12"/>
            <line class="cls-12" x1="22.25" y1="40.31" x2="22.25" y2="49.06"/>
            <line class="cls-12" x1="23.4" y1="40.31" x2="23.4" y2="49.06"/>
            <line class="cls-12" x1="24.55" y1="40.31" x2="24.55" y2="49.06"/>
          </g>
        </g>
        <path class="cls-12" d="M39.18,54.78H29.34V45.21a4.92,4.92,0,0,1,4.92-4.92h0a4.92,4.92,0,0,1,4.92,4.92Z"/>
        <path class="cls-12" d="M28.92,29.15H23.4V23.78A2.77,2.77,0,0,1,26.16,21h0a2.76,2.76,0,0,1,2.76,2.76Z"/>
        <path class="cls-12" d="M37,29.15H31.49V23.78A2.77,2.77,0,0,1,34.26,21h0A2.77,2.77,0,0,1,37,23.78Z"/>
        <path class="cls-12" d="M45.11,29.15H39.59V23.78A2.77,2.77,0,0,1,42.35,21h0a2.76,2.76,0,0,1,2.76,2.76Z"/>
        <path class="cls-12" d="M19,40.62H13.43V35.25a2.76,2.76,0,0,1,2.76-2.76h0A2.76,2.76,0,0,1,19,35.25Z"/>
        <path class="cls-12" d="M54.68,40.62H49.15V35.25a2.76,2.76,0,0,1,2.77-2.76h0a2.76,2.76,0,0,1,2.76,2.76Z"/>
        <path class="cls-12" d="M63.57,40.62H58.05V35.25a2.75,2.75,0,0,1,2.76-2.76h0a2.75,2.75,0,0,1,2.76,2.76Z"/>
        <path class="cls-12" d="M10.46,40.62H4.94V35.25A2.76,2.76,0,0,1,7.7,32.49h0a2.75,2.75,0,0,1,2.76,2.76Z"/>
        <path class="cls-12" d="M19.24,40.62H13.71V35.25a2.76,2.76,0,0,1,2.76-2.76h0a2.76,2.76,0,0,1,2.76,2.76Z"/>
        <path class="cls-12" d="M54.68,50.23H49.15V44.86a2.77,2.77,0,0,1,2.77-2.76h0a2.77,2.77,0,0,1,2.76,2.76Z"/>
        <path class="cls-12" d="M63.57,50.23H58.05V44.86a2.76,2.76,0,0,1,2.76-2.76h0a2.76,2.76,0,0,1,2.76,2.76Z"/>
        <path class="cls-12" d="M10.46,50.23H4.94V44.86A2.77,2.77,0,0,1,7.7,42.1h0a2.76,2.76,0,0,1,2.76,2.76Z"/>
        <path class="cls-12" d="M19.24,50.23H13.71V44.86a2.77,2.77,0,0,1,2.76-2.76h0a2.77,2.77,0,0,1,2.76,2.76Z"/>
        <rect class="cls-12" x="23.62" y="31.53" width="21.27" height="1.88"/>
        <circle class="cls-12" cx="34.02" cy="16.57" r="0.79"/>
      </g>
      <g>
        <rect class="cls-2" x="3.24" y="30.79" width="62.02" height="23.99"/>
        <rect class="cls-13" x="3.24" y="31" width="8.92" height="23.77"/>
        <rect class="cls-13" x="56.35" y="31" width="8.92" height="23.77"/>
        <rect class="cls-11" x="3.24" y="51.05" width="62.02" height="3.72"/>
        <polygon class="cls-11" points="67.09 31 1.42 31 4.13 27.03 64.38 27.03 67.09 31"/>
        <polygon class="cls-14" points="34.26 9.27 22.11 18.57 22.11 54.78 46.4 54.78 46.4 18.57 34.26 9.27"/>
        <polygon class="cls-11" points="48.84 21.14 34.26 10.01 19.67 21.14 18.96 20.21 34.26 8.53 49.56 20.21 48.84 21.14"/>
        <rect class="cls-11" x="20.59" y="36.55" width="27.34" height="2.12"/>
        <g>
          <g>
            <rect class="cls-10" x="42.75" y="50.05" width="4.73" height="4.73"/>
            <rect class="cls-15" x="43.47" y="39.79" width="3.3" height="10.22"/>
            <rect class="cls-10" x="42.75" y="38.67" width="4.73" height="1.12"/>
            <line class="cls-16" x1="43.96" y1="40.31" x2="43.96" y2="49.06"/>
            <line class="cls-16" x1="45.11" y1="40.31" x2="45.11" y2="49.06"/>
            <line class="cls-16" x1="46.26" y1="40.31" x2="46.26" y2="49.06"/>
          </g>
          <g>
            <rect class="cls-10" x="21.03" y="50.05" width="4.73" height="4.73"/>
            <rect class="cls-15" x="21.75" y="39.79" width="3.3" height="10.22"/>
            <rect class="cls-10" x="21.03" y="38.67" width="4.73" height="1.12"/>
            <line class="cls-16" x1="22.25" y1="40.31" x2="22.25" y2="49.06"/>
            <line class="cls-16" x1="23.4" y1="40.31" x2="23.4" y2="49.06"/>
            <line class="cls-16" x1="24.55" y1="40.31" x2="24.55" y2="49.06"/>
          </g>
        </g>
        <path class="cls-11" d="M39.18,54.78H29.34V45.21a4.92,4.92,0,0,1,4.92-4.92h0a4.92,4.92,0,0,1,4.92,4.92Z"/>
        <path class="cls-11" d="M28.92,29.15H23.4V23.78A2.77,2.77,0,0,1,26.16,21h0a2.76,2.76,0,0,1,2.76,2.76Z"/>
        <path class="cls-11" d="M37,29.15H31.49V23.78A2.77,2.77,0,0,1,34.26,21h0A2.77,2.77,0,0,1,37,23.78Z"/>
        <path class="cls-11" d="M45.11,29.15H39.59V23.78A2.77,2.77,0,0,1,42.35,21h0a2.76,2.76,0,0,1,2.76,2.76Z"/>
        <path class="cls-11" d="M19,40.62H13.43V35.25a2.76,2.76,0,0,1,2.76-2.76h0A2.76,2.76,0,0,1,19,35.25Z"/>
        <path class="cls-11" d="M54.68,40.62H49.15V35.25a2.76,2.76,0,0,1,2.77-2.76h0a2.76,2.76,0,0,1,2.76,2.76Z"/>
        <path class="cls-11" d="M63.57,40.62H58.05V35.25a2.75,2.75,0,0,1,2.76-2.76h0a2.75,2.75,0,0,1,2.76,2.76Z"/>
        <path class="cls-11" d="M10.46,40.62H4.94V35.25A2.76,2.76,0,0,1,7.7,32.49h0a2.75,2.75,0,0,1,2.76,2.76Z"/>
        <path class="cls-11" d="M19.24,40.62H13.71V35.25a2.76,2.76,0,0,1,2.76-2.76h0a2.76,2.76,0,0,1,2.76,2.76Z"/>
        <path class="cls-11" d="M54.68,50.23H49.15V44.86a2.77,2.77,0,0,1,2.77-2.76h0a2.77,2.77,0,0,1,2.76,2.76Z"/>
        <path class="cls-11" d="M63.57,50.23H58.05V44.86a2.76,2.76,0,0,1,2.76-2.76h0a2.76,2.76,0,0,1,2.76,2.76Z"/>
        <path class="cls-11" d="M10.46,50.23H4.94V44.86A2.77,2.77,0,0,1,7.7,42.1h0a2.76,2.76,0,0,1,2.76,2.76Z"/>
        <path class="cls-11" d="M19.24,50.23H13.71V44.86a2.77,2.77,0,0,1,2.76-2.76h0a2.77,2.77,0,0,1,2.76,2.76Z"/>
        <rect class="cls-11" x="23.62" y="31.53" width="21.27" height="1.88"/>
        <circle class="cls-11" cx="34.02" cy="16.57" r="0.79"/>
      </g>
    </g>
  </g>
</svg>
