<svg id="Capa_1" data-name="Capa 1" xmlns="http://www.w3.org/2000/svg" viewBox="0 0 68.01 65.12">
  <defs>
    <style>
      .cls-1 {
        fill: #f3d6ed;
      }

      .cls-12, .cls-13, .cls-17, .cls-19, .cls-2, .cls-20, .cls-21, .cls-22, .cls-23, .cls-24, .cls-9 {
        fill: none;
      }

      .cls-2 {
        stroke: #fff;
        stroke-width: 2px;
      }

      .cls-10, .cls-12, .cls-2, .cls-9 {
        stroke-linecap: round;
      }

      .cls-10, .cls-12, .cls-13, .cls-2, .cls-9 {
        stroke-linejoin: round;
      }

      .cls-3 {
        fill: #798ed6;
      }

      .cls-4 {
        fill: #e3b965;
      }

      .cls-5 {
        fill: #f3d387;
      }

      .cls-10, .cls-6 {
        fill: #4e4e4e;
      }

      .cls-7 {
        fill: #fff;
      }

      .cls-8 {
        fill: #c9c8c6;
      }

      .cls-12, .cls-9 {
        stroke: #4e4e4e;
      }

      .cls-10, .cls-9 {
        stroke-width: 0.34px;
      }

      .cls-10, .cls-19 {
        stroke: #5656bd;
      }

      .cls-11 {
        fill: #202020;
      }

      .cls-12 {
        stroke-width: 0.23px;
      }

      .cls-13 {
        stroke: #202020;
        stroke-width: 0.45px;
      }

      .cls-14 {
        fill: #5656bd;
      }

      .cls-15 {
        fill: #bdf5ea;
      }

      .cls-16 {
        fill: #f7f7f7;
      }

      .cls-17 {
        stroke: #798ed6;
        stroke-width: 0.12px;
      }

      .cls-17, .cls-19, .cls-20, .cls-21, .cls-22, .cls-23, .cls-24 {
        stroke-miterlimit: 10;
      }

      .cls-18 {
        fill: #7f8ed4;
      }

      .cls-20, .cls-22 {
        stroke: #bdf5ea;
      }

      .cls-21 {
        stroke: #7f8ed4;
      }

      .cls-22, .cls-24 {
        stroke-width: 0.75px;
      }

      .cls-23, .cls-24 {
        stroke: #f5ffdc;
      }

      .cls-25 {
        fill: #f5ffdc;
      }
    </style>
  </defs>
  <g>
    <circle class="cls-1" cx="32.49" cy="32.32" r="25.09"/>
    <g>
      <g>
        <g>
          <path class="cls-2" d="M37.21,4.59a6.25,6.25,0,0,0,.55,4.91,10,10,0,0,1,.11-2,3.43,3.43,0,0,0-.07-2.22.31.31,0,0,0-.19-.18.28.28,0,0,0-.18,0,.67.67,0,0,0-.41.56"/>
          <path class="cls-2" d="M37.9,5.26a17.17,17.17,0,0,0,.26,3.92,4.5,4.5,0,0,1,.22-.82,8,8,0,0,0,.85,3.38,3.39,3.39,0,0,1,0-1.27,15.06,15.06,0,0,0,1.08,2.3c-.1-1.36,0-2.72-.05-4.08a6.43,6.43,0,0,0-1.29-3.81c-.17-.21-.5-.41-.7-.22a.62.62,0,0,0-.12.3l-.17.83"/>
          <path class="cls-2" d="M46.69,3.9a7.47,7.47,0,0,1,.5,2.77l-.29-.52a6.63,6.63,0,0,1-.9,4.13,4.19,4.19,0,0,0,0-.61,4.56,4.56,0,0,1-2,2.44c1-2.13.47-4.66,1.22-6.88a2.06,2.06,0,0,1,.45-.82.9.9,0,0,1,.87-.28.94.94,0,0,1,.55.54,2.48,2.48,0,0,1,.18.76"/>
          <polygon class="cls-2" points="48.33 31.52 45.35 49.71 44.35 61.28 42 61.28 42.35 49.85 41.91 37.52 41 40.58 38.87 61.51 36.52 61.51 36.38 47.65 35.91 33.58 48.33 31.52"/>
          <polyline class="cls-2" points="43.11 12.98 40.97 13.1 36.31 15.99 36.31 32.28 36.15 34.34 47.92 32.28 47.92 15.99 43.26 13.1 41.13 12.98"/>
          <polygon class="cls-2" points="47.92 15.99 50.44 23.42 49.18 32.28 47.92 32.28 47.92 15.99"/>
          <polygon class="cls-2" points="36.31 15.99 33.8 23.42 35.06 33.33 37.44 33.33 36.31 15.99"/>
          <polygon class="cls-2" points="42.13 11.46 42.13 11.45 42.12 11.46 42.11 11.45 42.11 11.46 41.02 11.77 41.05 13.1 41.42 13.73 41.83 14.05 42.11 14.05 42.13 14.05 42.41 14.05 42.82 13.73 43.18 13.1 43.22 11.77 42.13 11.46"/>
          <path class="cls-2" d="M45.59,9.84l-1.82,1.87a.9.9,0,0,1-.65.28h-1.9a.9.9,0,0,1-.65-.28l-1.83-1.9a1,1,0,0,1-.21-.37L37.24,5.21a.91.91,0,0,1,.23-.91l1.76-1.72a.89.89,0,0,1,.6-.26l5.11-.19.22,0,1.16.25A.91.91,0,0,1,47,3.47L45.83,9.39A.94.94,0,0,1,45.59,9.84Z"/>
          <g>
            <circle class="cls-2" cx="43.76" cy="5.96" r="0.36"/>
            <circle class="cls-2" cx="40.48" cy="5.96" r="0.36"/>
          </g>
          <g>
            <g>
              <line class="cls-2" x1="39.96" y1="5.37" x2="41" y2="5.37"/>
              <path class="cls-2" d="M40,5.37a1.4,1.4,0,0,1,1,0H40Z"/>
            </g>
            <g>
              <line class="cls-2" x1="43.24" y1="5.37" x2="44.28" y2="5.37"/>
              <path class="cls-2" d="M43.24,5.37a2.28,2.28,0,0,1,.52-.1,2.51,2.51,0,0,1,.52.1h-1Z"/>
            </g>
          </g>
          <rect class="cls-2" x="45.02" y="6.85" width="2.18" height="1.17" rx="0.36" transform="translate(32.93 52.24) rotate(-82.77)"/>
          <rect class="cls-2" x="37.42" y="6.35" width="1.17" height="2.18" rx="0.36" transform="matrix(0.99, -0.13, 0.13, 0.99, -0.63, 4.85)"/>
          <g>
            <polyline class="cls-2" points="41.91 5.96 42.07 7.43 42.72 8.33 42.72 9.01 41.66 9.01 41.52 8.66 41.84 8.3 42.1 8.62"/>
            <path class="cls-2" d="M41.91,6c.07.49.14,1,.2,1.47v0l.66.89v0h0v.73H41.63V9l-.14-.35v0h0l.33-.35h0l.25.33-.27-.31h0l-.31.37v0l.14.36,0,0,1.06,0,0,0V8.36L42,7.46h0C42,7,41.94,6.45,41.91,6Z"/>
          </g>
          <path class="cls-2" d="M38.86,61.51a5.6,5.6,0,0,1,0,2.22l-2.19.89H34a.29.29,0,0,1-.29-.35,3.06,3.06,0,0,1,.62-1.46,18.82,18.82,0,0,1,2.16-1.3"/>
          <path class="cls-2" d="M42,61.28a5.8,5.8,0,0,0,0,2.22l2.19.89h2.65a.3.3,0,0,0,.28-.36,3.06,3.06,0,0,0-.61-1.45,18.22,18.22,0,0,0-2.16-1.3"/>
          <g>
            <line class="cls-2" x1="42.92" y1="10.38" x2="41.32" y2="10.38"/>
            <path class="cls-2" d="M42.92,10.41a1.31,1.31,0,0,1-.4.31,2.07,2.07,0,0,1-.4.09,1.92,1.92,0,0,1-.4-.09,1.21,1.21,0,0,1-.4-.31v-.05a14.23,14.23,0,0,1,1.6,0Z"/>
          </g>
          <path class="cls-2" d="M45.46.15a4.08,4.08,0,0,1,3,2.08,7.76,7.76,0,0,1,.6,2.1c-.05-.43-.6-1-.85-1.35a4.69,4.69,0,0,1,.17,2,6.43,6.43,0,0,1-.57,2.28c.17-.37-.27-1.2-.45-1.5a4.76,4.76,0,0,0-.91-1.27,4,4,0,0,0-2.83-1.25,9.76,9.76,0,0,0-2.11.48,3,3,0,0,1-2.12-.11,1.37,1.37,0,0,1-.22.88,6.09,6.09,0,0,0-.36,4,25.49,25.49,0,0,1-1.45-2.4,3,3,0,0,1-.4-1,2,2,0,0,1,0-.73,4.66,4.66,0,0,1,2-2.87A8.69,8.69,0,0,1,42.36.21,7.89,7.89,0,0,1,45.46.15Z"/>
          <polygon class="cls-2" points="43.76 13.37 48.33 15.82 50.81 23.35 49.58 32.28 48.15 44.25 43.76 42.9 42.12 34.66 40.18 42.78 35.62 42.15 35.42 34.97 34.63 33.58 33.2 23.66 35.62 15.82 40.64 13.29 42 19.59 43.76 13.37"/>
          <polygon class="cls-2" points="48.59 32.9 48.04 34.66 46.25 36.19 45.31 35.77 44.95 34.68 46.43 34.08 46.77 33.21 48.59 32.9"/>
          <polygon class="cls-2" points="35.52 32.7 36.07 34.45 37.87 35.98 38.8 35.57 39.16 34.48 37.68 33.88 37.34 33.01 35.52 32.7"/>
          <g>
            <polyline class="cls-2" points="44.87 34.42 45.34 35.77 46.53 36.3"/>
            <path class="cls-2" d="M44.86,34.42a3,3,0,0,1,.42.61c.1.22.19.44.28.67l-.13-.14a6.38,6.38,0,0,1,.57.32,2.65,2.65,0,0,1,.53.42,2.85,2.85,0,0,1-.67-.1,6.45,6.45,0,0,1-.62-.21l-.09,0,0-.11c-.07-.23-.14-.46-.19-.69A3.58,3.58,0,0,1,44.86,34.42Z"/>
          </g>
          <g>
            <polyline class="cls-2" points="39.24 34.23 38.77 35.58 37.58 36.11"/>
            <path class="cls-2" d="M39.24,34.23a3,3,0,0,1-.05.74c-.06.23-.12.46-.2.69l0,.1-.09,0a6.5,6.5,0,0,1-.62.22,2.93,2.93,0,0,1-.67.1,3,3,0,0,1,.52-.43,4.63,4.63,0,0,1,.58-.31l-.13.13a6.21,6.21,0,0,1,.28-.66A3.43,3.43,0,0,1,39.24,34.23Z"/>
          </g>
          <g>
            <polyline class="cls-2" points="46.82 32.86 47.38 24.02 46.41 18.44 45.8 18.28"/>
            <path class="cls-2" d="M46.82,32.86l.24-4.42c.08-1.48.16-3,.27-4.42h0c-.31-1.86-.64-3.72-.93-5.59h0l-.61-.17.61.15h0c.36,1.85.68,3.71,1,5.57h0c-.08,1.48-.19,2.95-.29,4.42Z"/>
          </g>
          <g>
            <polyline class="cls-2" points="37.47 32.86 36.91 24.02 37.88 18.44 38.49 18.28"/>
            <path class="cls-2" d="M37.47,32.86l-.32-4.42c-.1-1.47-.21-2.94-.29-4.42h0c.34-1.86.65-3.72,1-5.57h0l.61-.15-.6.17h0c-.28,1.87-.62,3.73-.93,5.59h0c.1,1.47.18,2.94.27,4.42Z"/>
          </g>
        </g>
        <g>
          <path class="cls-2" d="M41.83,13.14a4.57,4.57,0,0,0-1.94,3.66"/>
          <path class="cls-2" d="M46.33,16.9a4.53,4.53,0,0,0-2-3.71"/>
          <circle class="cls-2" cx="46.33" cy="16.9" r="0.84"/>
          <circle class="cls-2" cx="46.33" cy="16.9" r="0.39"/>
          <path class="cls-2" d="M41.54,18.47v1.89a.41.41,0,0,1-.41.41h-.4"/>
          <circle class="cls-2" cx="40.68" cy="20.77" r="0.18"/>
          <path class="cls-2" d="M38.23,18.47v1.89a.42.42,0,0,0,.42.41H39"/>
          <circle class="cls-2" cx="39.09" cy="20.77" r="0.18"/>
          <path class="cls-2" d="M38.23,18.47a1.66,1.66,0,1,1,3.31,0"/>
        </g>
        <g>
          <polygon class="cls-2" points="31.87 33.56 31.2 34.79 30.43 34.33 31.59 33.3 31.87 33.56"/>
          <polygon class="cls-2" points="29.53 35.57 26.54 37.22 26.68 45.28 29.73 45.34 29.53 35.57"/>
          <polygon class="cls-2" points="25.72 53.84 24.96 60.67 27.87 62.52 24.92 62.45 23.58 62.43 23.77 53.8 25.72 53.84"/>
          <polygon class="cls-2" points="30.17 29.3 26.04 53.85 24.27 53.81 25.18 29.33 30.17 29.3"/>
          <path class="cls-2" d="M26.62,11.43a1.37,1.37,0,0,1-2.12,0l.07-3.25,2.12,0Z"/>
          <path class="cls-2" d="M24.19,10.88,22,11.77a2.14,2.14,0,0,0-1.35,2l-.34,15.69,9.86-.12,0-15.7A2.63,2.63,0,0,0,28.54,12l-1.58-1Z"/>
          <polygon class="cls-2" points="20.31 29.42 22.38 53.77 25.47 53.84 25.99 29.35 20.31 29.42"/>
          <polygon class="cls-2" points="22.63 53.77 22.94 61.24 22.42 63.46 26.27 64.6 24.11 61.16 24.71 53.82 22.63 53.77"/>
          <path class="cls-2" d="M24.19,10.88s.69.09.51,4.6-.13,30.32-.13,30.32l-10.29-.22L19.05,14.8a3.66,3.66,0,0,1,2-2.73,17.63,17.63,0,0,1,3.12-1.19"/>
          <path class="cls-2" d="M27,10.94l2.1,35,4.18.09L30.4,13.6a2.45,2.45,0,0,0-1.79-2.11A5.83,5.83,0,0,0,27,10.94"/>
          <path class="cls-2" d="M29.6,5.1c-.05,2.42-1.48,4.36-3.18,4.32s-3.05-2-3-4.45S24.9.62,26.61.65s3,2,3,4.45"/>
          <path class="cls-2" d="M29.59,5.65s-.13,2.08.69,3a.14.14,0,0,1-.1.24L28,8.81a4.8,4.8,0,0,0,1.55-3.16"/>
          <path class="cls-2" d="M29.7,3.71l-3.16-.16-.72-1.26s-1.4.24-1.33,2.19,0,1.36,0,1.36,0-1.28-.41-1.37-.66.09-.63.65-.14,1.25.64,1.49l.6,2.1a.33.33,0,0,1-.32.42l-3.61-.08a.33.33,0,0,1-.3-.42c.23-.77.75-2.63,1.39-5.71C22.6-.8,27,0,27.7.22,29.37.68,30,1.38,30.12,3.29a.4.4,0,0,1-.42.42"/>
          <polygon class="cls-2" points="22.54 14.85 27.48 35.11 26.29 36.2 19.13 23.35 22.54 14.85"/>
          <polygon class="cls-2" points="27.52 34.41 27.35 35.62 26.09 37.34 26.93 38.96 28.22 38.55 28.11 35.9 28.3 34.86 27.52 34.41"/>
          <polygon class="cls-2" points="27.22 35.35 27.64 36.42 28.74 37.37 28.51 39.15 27.39 39.07 26.62 38.14 27.3 37.71 26.98 36.6 26.57 35.95 27.22 35.35"/>
          <path class="cls-2" d="M27,34.74l2.66-22.68s2.18,1.36,1.78,7.77C31,26,28.59,35.55,28.59,35.55Z"/>
          <path class="cls-2" d="M26.72,5.41c0,.07-.22,0-.41-.07S26,5.1,26,5s.22,0,.41.06.32.25.28.32"/>
          <path class="cls-2" d="M28.38,5.56c0,.07.22.05.42,0s.33-.23.3-.3-.23,0-.42,0-.33.23-.3.3"/>
          <path class="cls-2" d="M26,4.38a.62.62,0,0,1,.77-.16"/>
          <path class="cls-2" d="M28.43,4.32a.55.55,0,0,1,.69.26"/>
          <path class="cls-2" d="M27.6,5.06A3.76,3.76,0,0,0,28,7l-.48.22a4.51,4.51,0,0,1,.05-2.14"/>
          <path class="cls-2" d="M26.6,7.61a2.35,2.35,0,0,0,.82.09.4.4,0,0,1-.41.24.53.53,0,0,1-.41-.33"/>
          <line class="cls-2" x1="24.57" y1="33.11" x2="20.98" y2="26.66"/>
          <line class="cls-2" x1="28.59" y1="35.55" x2="30.67" y2="25.66"/>
          <path class="cls-2" d="M26.42,5.07s.44,0,.49-.28a.39.39,0,0,1-.35.39Z"/>
          <path class="cls-2" d="M28.88,5.19s.41,0,.45-.27a.35.35,0,0,1-.32.37Z"/>
          <polygon class="cls-2" points="24.11 61.16 22.94 61.24 22.42 63.46 26.27 64.6 24.11 61.16"/>
          <polygon class="cls-2" points="24.96 60.67 27.87 62.52 23.59 62.56 23.8 60.97 24.96 60.67"/>
        </g>
      </g>
      <g>
        <g>
          <path class="cls-3" d="M37.21,4.59a6.25,6.25,0,0,0,.55,4.91,10,10,0,0,1,.11-2,3.43,3.43,0,0,0-.07-2.22.31.31,0,0,0-.19-.18.28.28,0,0,0-.18,0,.67.67,0,0,0-.41.56"/>
          <path class="cls-3" d="M37.9,5.26a17.17,17.17,0,0,0,.26,3.92,4.5,4.5,0,0,1,.22-.82,8,8,0,0,0,.85,3.38,3.39,3.39,0,0,1,0-1.27,15.06,15.06,0,0,0,1.08,2.3c-.1-1.36,0-2.72-.05-4.08a6.43,6.43,0,0,0-1.29-3.81c-.17-.21-.5-.41-.7-.22a.62.62,0,0,0-.12.3l-.17.83"/>
          <path class="cls-3" d="M46.69,3.9a7.47,7.47,0,0,1,.5,2.77l-.29-.52a6.63,6.63,0,0,1-.9,4.13,4.19,4.19,0,0,0,0-.61,4.56,4.56,0,0,1-2,2.44c1-2.13.47-4.66,1.22-6.88a2.06,2.06,0,0,1,.45-.82.9.9,0,0,1,.87-.28.94.94,0,0,1,.55.54,2.48,2.48,0,0,1,.18.76"/>
          <polygon class="cls-3" points="48.33 31.52 45.35 49.71 44.35 61.28 42 61.28 42.35 49.85 41.91 37.52 41 40.58 38.87 61.51 36.52 61.51 36.38 47.65 35.91 33.58 48.33 31.52"/>
          <polyline class="cls-3" points="43.11 12.98 40.97 13.1 36.31 15.99 36.31 32.28 36.15 34.34 47.92 32.28 47.92 15.99 43.26 13.1 41.13 12.98"/>
          <polygon class="cls-3" points="47.92 15.99 50.44 23.42 49.18 32.28 47.92 32.28 47.92 15.99"/>
          <polygon class="cls-3" points="36.31 15.99 33.8 23.42 35.06 33.33 37.44 33.33 36.31 15.99"/>
          <polygon class="cls-4" points="42.13 11.46 42.13 11.45 42.12 11.46 42.11 11.45 42.11 11.46 41.02 11.77 41.05 13.1 41.42 13.73 41.83 14.05 42.11 14.05 42.13 14.05 42.41 14.05 42.82 13.73 43.18 13.1 43.22 11.77 42.13 11.46"/>
          <path class="cls-5" d="M45.59,9.84l-1.82,1.87a.9.9,0,0,1-.65.28h-1.9a.9.9,0,0,1-.65-.28l-1.83-1.9a1,1,0,0,1-.21-.37L37.24,5.21a.91.91,0,0,1,.23-.91l1.76-1.72a.89.89,0,0,1,.6-.26l5.11-.19.22,0,1.16.25A.91.91,0,0,1,47,3.47L45.83,9.39A.94.94,0,0,1,45.59,9.84Z"/>
          <g>
            <circle class="cls-6" cx="43.76" cy="5.96" r="0.36"/>
            <circle class="cls-6" cx="40.48" cy="5.96" r="0.36"/>
          </g>
          <g>
            <path class="cls-6" d="M40,5.37a1.4,1.4,0,0,1,1,0H40Z"/>
            <path class="cls-6" d="M43.24,5.37a2.28,2.28,0,0,1,.52-.1,2.51,2.51,0,0,1,.52.1h-1Z"/>
          </g>
          <rect class="cls-5" x="45.02" y="6.85" width="2.18" height="1.17" rx="0.36" transform="translate(32.93 52.24) rotate(-82.77)"/>
          <rect class="cls-5" x="37.42" y="6.35" width="1.17" height="2.18" rx="0.36" transform="matrix(0.99, -0.13, 0.13, 0.99, -0.63, 4.85)"/>
          <path class="cls-6" d="M41.91,6c.07.49.14,1,.2,1.47v0l.66.89v0h0v.73H41.63V9l-.14-.35v0h0l.33-.35h0l.25.33-.27-.31h0l-.31.37v0l.14.36,0,0,1.06,0,0,0V8.36L42,7.46h0C42,7,41.94,6.45,41.91,6Z"/>
          <path class="cls-6" d="M38.86,61.51a5.6,5.6,0,0,1,0,2.22l-2.19.89H34a.29.29,0,0,1-.29-.35,3.06,3.06,0,0,1,.62-1.46,18.82,18.82,0,0,1,2.16-1.3"/>
          <path class="cls-6" d="M42,61.28a5.8,5.8,0,0,0,0,2.22l2.19.89h2.65a.3.3,0,0,0,.28-.36,3.06,3.06,0,0,0-.61-1.45,18.22,18.22,0,0,0-2.16-1.3"/>
          <path class="cls-6" d="M42.92,10.41a1.31,1.31,0,0,1-.4.31,2.07,2.07,0,0,1-.4.09,1.92,1.92,0,0,1-.4-.09,1.21,1.21,0,0,1-.4-.31v-.05a14.23,14.23,0,0,1,1.6,0Z"/>
          <path class="cls-3" d="M45.46.15a4.08,4.08,0,0,1,3,2.08,7.76,7.76,0,0,1,.6,2.1c-.05-.43-.6-1-.85-1.35a4.69,4.69,0,0,1,.17,2,6.43,6.43,0,0,1-.57,2.28c.17-.37-.27-1.2-.45-1.5a4.76,4.76,0,0,0-.91-1.27,4,4,0,0,0-2.83-1.25,9.76,9.76,0,0,0-2.11.48,3,3,0,0,1-2.12-.11,1.37,1.37,0,0,1-.22.88,6.09,6.09,0,0,0-.36,4,25.49,25.49,0,0,1-1.45-2.4,3,3,0,0,1-.4-1,2,2,0,0,1,0-.73,4.66,4.66,0,0,1,2-2.87A8.69,8.69,0,0,1,42.36.21,7.89,7.89,0,0,1,45.46.15Z"/>
          <polygon class="cls-7" points="43.76 13.37 48.33 15.82 50.81 23.35 49.58 32.28 48.15 44.25 43.76 42.9 42.12 34.66 40.18 42.78 35.62 42.15 35.42 34.97 34.63 33.58 33.2 23.66 35.62 15.82 40.64 13.29 42 19.59 43.76 13.37"/>
          <polygon class="cls-5" points="48.59 32.9 48.04 34.66 46.25 36.19 45.31 35.77 44.95 34.68 46.43 34.08 46.77 33.21 48.59 32.9"/>
          <polygon class="cls-5" points="35.52 32.7 36.07 34.45 37.87 35.98 38.8 35.57 39.16 34.48 37.68 33.88 37.34 33.01 35.52 32.7"/>
          <path class="cls-8" d="M44.86,34.42a3,3,0,0,1,.42.61c.1.22.19.44.28.67l-.13-.14a6.38,6.38,0,0,1,.57.32,2.65,2.65,0,0,1,.53.42,2.85,2.85,0,0,1-.67-.1,6.45,6.45,0,0,1-.62-.21l-.09,0,0-.11c-.07-.23-.14-.46-.19-.69A3.58,3.58,0,0,1,44.86,34.42Z"/>
          <path class="cls-8" d="M39.24,34.23a3,3,0,0,1-.05.74c-.06.23-.12.46-.2.69l0,.1-.09,0a6.5,6.5,0,0,1-.62.22,2.93,2.93,0,0,1-.67.1,3,3,0,0,1,.52-.43,4.63,4.63,0,0,1,.58-.31l-.13.13a6.21,6.21,0,0,1,.28-.66A3.43,3.43,0,0,1,39.24,34.23Z"/>
          <path class="cls-3" d="M46.82,32.86l.24-4.42c.08-1.48.16-3,.27-4.42h0c-.31-1.86-.64-3.72-.93-5.59h0l-.61-.17.61.15h0c.36,1.85.68,3.71,1,5.57h0c-.08,1.48-.19,2.95-.29,4.42Z"/>
          <path class="cls-3" d="M37.47,32.86l-.32-4.42c-.1-1.47-.21-2.94-.29-4.42h0c.34-1.86.65-3.72,1-5.57h0l.61-.15-.6.17h0c-.28,1.87-.62,3.73-.93,5.59h0c.1,1.47.18,2.94.27,4.42Z"/>
        </g>
        <g>
          <path class="cls-9" d="M41.83,13.14a4.57,4.57,0,0,0-1.94,3.66"/>
          <path class="cls-9" d="M46.33,16.9a4.53,4.53,0,0,0-2-3.71"/>
          <circle class="cls-10" cx="46.33" cy="16.9" r="0.84"/>
          <circle class="cls-11" cx="46.33" cy="16.9" r="0.39"/>
          <path class="cls-12" d="M41.54,18.47v1.89a.41.41,0,0,1-.41.41h-.4"/>
          <circle class="cls-11" cx="40.68" cy="20.77" r="0.18"/>
          <path class="cls-12" d="M38.23,18.47v1.89a.42.42,0,0,0,.42.41H39"/>
          <circle class="cls-11" cx="39.09" cy="20.77" r="0.18"/>
          <path class="cls-13" d="M38.23,18.47a1.66,1.66,0,1,1,3.31,0"/>
        </g>
        <g>
          <polygon class="cls-3" points="31.87 33.56 31.2 34.79 30.43 34.33 31.59 33.3 31.87 33.56"/>
          <polygon class="cls-3" points="29.53 35.57 26.54 37.22 26.68 45.28 29.73 45.34 29.53 35.57"/>
          <polygon class="cls-4" points="25.72 53.84 24.96 60.67 27.87 62.52 24.92 62.45 23.58 62.43 23.77 53.8 25.72 53.84"/>
          <polygon class="cls-14" points="30.17 29.3 26.04 53.85 24.27 53.81 25.18 29.33 30.17 29.3"/>
          <path class="cls-4" d="M26.62,11.43a1.37,1.37,0,0,1-2.12,0l.07-3.25,2.12,0Z"/>
          <path class="cls-15" d="M24.19,10.88,22,11.77a2.14,2.14,0,0,0-1.35,2l-.34,15.69,9.86-.12,0-15.7A2.63,2.63,0,0,0,28.54,12l-1.58-1Z"/>
          <polygon class="cls-3" points="20.31 29.42 22.38 53.77 25.47 53.84 25.99 29.35 20.31 29.42"/>
          <polygon class="cls-5" points="22.63 53.77 22.94 61.24 22.42 63.46 26.27 64.6 24.11 61.16 24.71 53.82 22.63 53.77"/>
          <path class="cls-16" d="M24.19,10.88s.69.09.51,4.6-.13,30.32-.13,30.32l-10.29-.22L19.05,14.8a3.66,3.66,0,0,1,2-2.73,17.63,17.63,0,0,1,3.12-1.19"/>
          <path class="cls-16" d="M27,10.94l2.1,35,4.18.09L30.4,13.6a2.45,2.45,0,0,0-1.79-2.11A5.83,5.83,0,0,0,27,10.94"/>
          <path class="cls-5" d="M29.6,5.1c-.05,2.42-1.48,4.36-3.18,4.32s-3.05-2-3-4.45S24.9.62,26.61.65s3,2,3,4.45"/>
          <path class="cls-14" d="M29.59,5.65s-.13,2.08.69,3a.14.14,0,0,1-.1.24L28,8.81a4.8,4.8,0,0,0,1.55-3.16"/>
          <path class="cls-14" d="M29.7,3.71l-3.16-.16-.72-1.26s-1.4.24-1.33,2.19,0,1.36,0,1.36,0-1.28-.41-1.37-.66.09-.63.65-.14,1.25.64,1.49l.6,2.1a.33.33,0,0,1-.32.42l-3.61-.08a.33.33,0,0,1-.3-.42c.23-.77.75-2.63,1.39-5.71C22.6-.8,27,0,27.7.22,29.37.68,30,1.38,30.12,3.29a.4.4,0,0,1-.42.42"/>
          <polygon class="cls-16" points="22.54 14.85 27.48 35.11 26.29 36.2 19.13 23.35 22.54 14.85"/>
          <polygon class="cls-4" points="27.52 34.41 27.35 35.62 26.09 37.34 26.93 38.96 28.22 38.55 28.11 35.9 28.3 34.86 27.52 34.41"/>
          <polygon class="cls-5" points="27.22 35.35 27.64 36.42 28.74 37.37 28.51 39.15 27.39 39.07 26.62 38.14 27.3 37.71 26.98 36.6 26.57 35.95 27.22 35.35"/>
          <path class="cls-16" d="M27,34.74l2.66-22.68s2.18,1.36,1.78,7.77C31,26,28.59,35.55,28.59,35.55Z"/>
          <path class="cls-14" d="M26.72,5.41c0,.07-.22,0-.41-.07S26,5.1,26,5s.22,0,.41.06.32.25.28.32"/>
          <path class="cls-14" d="M28.38,5.56c0,.07.22.05.42,0s.33-.23.3-.3-.23,0-.42,0-.33.23-.3.3"/>
          <path class="cls-14" d="M26,4.38a.62.62,0,0,1,.77-.16"/>
          <path class="cls-14" d="M28.43,4.32a.55.55,0,0,1,.69.26"/>
          <path class="cls-3" d="M27.6,5.06A3.76,3.76,0,0,0,28,7l-.48.22a4.51,4.51,0,0,1,.05-2.14"/>
          <path class="cls-3" d="M26.6,7.61a2.35,2.35,0,0,0,.82.09.4.4,0,0,1-.41.24.53.53,0,0,1-.41-.33"/>
          <line class="cls-17" x1="24.57" y1="33.11" x2="20.98" y2="26.66"/>
          <line class="cls-17" x1="28.59" y1="35.55" x2="30.67" y2="25.66"/>
          <path class="cls-14" d="M26.42,5.07s.44,0,.49-.28a.39.39,0,0,1-.35.39Z"/>
          <path class="cls-14" d="M28.88,5.19s.41,0,.45-.27a.35.35,0,0,1-.32.37Z"/>
          <polygon class="cls-6" points="24.11 61.16 22.94 61.24 22.42 63.46 26.27 64.6 24.11 61.16"/>
          <polygon class="cls-6" points="24.96 60.67 27.87 62.52 23.59 62.56 23.8 60.97 24.96 60.67"/>
        </g>
      </g>
    </g>
    <circle class="cls-18" cx="5.08" cy="4.98" r="1.38"/>
    <circle class="cls-19" cx="54.11" cy="61.1" r="2.63"/>
    <circle class="cls-18" cx="6.45" cy="62.34" r="0.56"/>
    <path class="cls-20" d="M55.31,7.6a3.2,3.2,0,0,1,1.26,3"/>
    <path class="cls-21" d="M1.42,18.32a4,4,0,0,0-.8,3.52"/>
    <path class="cls-1" d="M54.08,50.73A1.9,1.9,0,0,1,56,49.61"/>
    <path class="cls-22" d="M15.26,54.22a2.77,2.77,0,0,1,1.25,2.83"/>
    <path class="cls-23" d="M34.16,2.8A1.55,1.55,0,0,1,32,2.88"/>
    <polygon class="cls-15" points="30.51 62.34 30.74 63.73 30.98 65.12 29.66 64.63 28.33 64.14 29.42 63.23 30.51 62.34"/>
    <polygon class="cls-24" points="19.42 4.96 19.66 6.35 19.89 7.74 18.57 7.25 17.25 6.76 18.33 5.86 19.42 4.96"/>
    <polygon class="cls-25" points="3.34 47.52 3.57 48.91 3.81 50.31 2.48 49.82 1.16 49.32 2.25 48.42 3.34 47.52"/>
    <polygon class="cls-14" points="67.54 29.43 67.78 30.83 68.01 32.22 66.69 31.73 65.36 31.24 66.45 30.34 67.54 29.43"/>
    <polygon class="cls-15" points="65.21 0.92 65.33 1.61 65.44 2.31 64.78 2.06 64.12 1.82 64.67 1.37 65.21 0.92"/>
  </g>
</svg>
