<svg id="Capa_1" data-name="Capa 1" xmlns="http://www.w3.org/2000/svg" viewBox="0 0 68.01 64.2">
  <defs>
    <style>
      .cls-1, .cls-10, .cls-13, .cls-15, .cls-19, .cls-22, .cls-4, .cls-5, .cls-6, .cls-7, .cls-8 {
        fill: none;
      }

      .cls-1 {
        stroke: #fff;
        stroke-linejoin: round;
        stroke-width: 2px;
      }

      .cls-1, .cls-19 {
        stroke-linecap: round;
      }

      .cls-2 {
        fill: #f3d6ed;
      }

      .cls-3 {
        fill: #7f8ed4;
      }

      .cls-14, .cls-15, .cls-4 {
        stroke: #5656bd;
      }

      .cls-10, .cls-13, .cls-14, .cls-15, .cls-19, .cls-22, .cls-4, .cls-5, .cls-6, .cls-7, .cls-8 {
        stroke-miterlimit: 10;
      }

      .cls-5, .cls-7 {
        stroke: #bdf5ea;
      }

      .cls-6 {
        stroke: #7f8ed4;
      }

      .cls-10, .cls-7 {
        stroke-width: 0.75px;
      }

      .cls-10, .cls-8 {
        stroke: #f5ffdc;
      }

      .cls-14, .cls-9 {
        fill: #bdf5ea;
      }

      .cls-11 {
        fill: #f5ffdc;
      }

      .cls-12 {
        fill: #5656bd;
      }

      .cls-13 {
        stroke: #dae3ba;
      }

      .cls-13, .cls-14, .cls-15 {
        stroke-width: 0.42px;
      }

      .cls-16 {
        opacity: 0.5;
      }

      .cls-17 {
        fill: #f1f1f1;
      }

      .cls-18 {
        fill: #3b683d;
      }

      .cls-19 {
        stroke: #3b683d;
        stroke-width: 0.1px;
      }

      .cls-20 {
        fill: #a52b31;
      }

      .cls-21 {
        fill: #4949a3;
      }

      .cls-22 {
        stroke: #4949a3;
        stroke-width: 0.62px;
      }

      .cls-23 {
        fill: #e4ebcb;
      }
    </style>
  </defs>
  <g>
    <g>
      <g>
        <circle class="cls-1" cx="34.26" cy="31.65" r="25.09"/>
        <circle class="cls-1" cx="5.08" cy="4.06" r="1.38"/>
        <circle class="cls-1" cx="54.11" cy="60.19" r="2.63"/>
        <circle class="cls-1" cx="6.45" cy="61.42" r="0.56"/>
        <path class="cls-1" d="M55.31,6.68a3.2,3.2,0,0,1,1.26,3"/>
        <path class="cls-1" d="M1.42,17.41a4,4,0,0,0-.8,3.52"/>
        <path class="cls-1" d="M54.08,49.81A1.93,1.93,0,0,1,56,48.69"/>
        <path class="cls-1" d="M15.26,53.3a2.77,2.77,0,0,1,1.25,2.83"/>
        <path class="cls-1" d="M34.16,1.89A1.57,1.57,0,0,1,32,2"/>
        <polygon class="cls-1" points="30.51 61.42 30.74 62.81 30.98 64.2 29.66 63.71 28.33 63.22 29.42 62.32 30.51 61.42"/>
        <polygon class="cls-1" points="19.42 4.04 19.66 5.44 19.89 6.83 18.57 6.34 17.25 5.84 18.33 4.95 19.42 4.04"/>
        <polygon class="cls-1" points="3.34 46.61 3.57 48 3.81 49.39 2.48 48.9 1.16 48.41 2.25 47.51 3.34 46.61"/>
        <polygon class="cls-1" points="67.54 28.52 67.78 29.91 68.01 31.3 66.69 30.81 65.36 30.32 66.45 29.42 67.54 28.52"/>
        <polygon class="cls-1" points="65.21 0 65.33 0.7 65.44 1.39 64.78 1.15 64.12 0.9 64.67 0.45 65.21 0"/>
      </g>
      <g>
        <circle class="cls-2" cx="34.26" cy="31.65" r="25.09"/>
        <circle class="cls-3" cx="5.08" cy="4.06" r="1.38"/>
        <circle class="cls-4" cx="54.11" cy="60.19" r="2.63"/>
        <circle class="cls-3" cx="6.45" cy="61.42" r="0.56"/>
        <path class="cls-5" d="M55.31,6.68a3.2,3.2,0,0,1,1.26,3"/>
        <path class="cls-6" d="M1.42,17.41a4,4,0,0,0-.8,3.52"/>
        <path class="cls-2" d="M54.08,49.81A1.93,1.93,0,0,1,56,48.69"/>
        <path class="cls-7" d="M15.26,53.3a2.77,2.77,0,0,1,1.25,2.83"/>
        <path class="cls-8" d="M34.16,1.89A1.57,1.57,0,0,1,32,2"/>
        <polygon class="cls-9" points="30.51 61.42 30.74 62.81 30.98 64.2 29.66 63.71 28.33 63.22 29.42 62.32 30.51 61.42"/>
        <polygon class="cls-10" points="19.42 4.04 19.66 5.44 19.89 6.83 18.57 6.34 17.25 5.84 18.33 4.95 19.42 4.04"/>
        <polygon class="cls-11" points="3.34 46.61 3.57 48 3.81 49.39 2.48 48.9 1.16 48.41 2.25 47.51 3.34 46.61"/>
        <polygon class="cls-12" points="67.54 28.52 67.78 29.91 68.01 31.3 66.69 30.81 65.36 30.32 66.45 29.42 67.54 28.52"/>
        <polygon class="cls-9" points="65.21 0 65.33 0.7 65.44 1.39 64.78 1.15 64.12 0.9 64.67 0.45 65.21 0"/>
      </g>
    </g>
    <g>
      <g>
        <rect class="cls-1" x="15.08" y="5.7" width="38.34" height="54.96"/>
        <g>
          <line class="cls-1" x1="15.08" y1="24.49" x2="53.43" y2="24.49"/>
          <line class="cls-1" x1="15.08" y1="41.86" x2="53.43" y2="41.86"/>
        </g>
        <g>
          <rect class="cls-1" x="19.71" y="9.13" width="5.28" height="11.52"/>
          <rect class="cls-1" x="18.92" y="20.86" width="6.85" height="1.71"/>
          <line class="cls-1" x1="19.71" y1="14.89" x2="24.99" y2="14.89"/>
          <g>
            <g>
              <line class="cls-1" x1="22.51" y1="10.9" x2="21.29" y2="12.11"/>
              <path class="cls-1" d="M22.51,10.9a1.9,1.9,0,0,1-.46.75,1.77,1.77,0,0,1-.76.46,1.87,1.87,0,0,1,1.22-1.21Z"/>
            </g>
            <g>
              <line class="cls-1" x1="24.12" y1="10.51" x2="20.91" y2="13.72"/>
              <path class="cls-1" d="M24.12,10.51a11.78,11.78,0,0,1-1.46,1.75,11.68,11.68,0,0,1-1.75,1.46,12.25,12.25,0,0,1,3.21-3.21Z"/>
            </g>
          </g>
          <g>
            <g>
              <line class="cls-1" x1="22.51" y1="16.54" x2="21.29" y2="17.76"/>
              <path class="cls-1" d="M22.51,16.54a1.92,1.92,0,0,1-1.22,1.22,1.87,1.87,0,0,1,.46-.76A1.9,1.9,0,0,1,22.51,16.54Z"/>
            </g>
            <g>
              <line class="cls-1" x1="24.12" y1="16.15" x2="20.91" y2="19.36"/>
              <path class="cls-1" d="M24.12,16.15a11.78,11.78,0,0,1-1.46,1.75,11.68,11.68,0,0,1-1.75,1.46,12.25,12.25,0,0,1,3.21-3.21Z"/>
            </g>
          </g>
        </g>
        <g>
          <rect class="cls-1" x="31.61" y="9.13" width="5.28" height="11.52"/>
          <rect class="cls-1" x="30.83" y="20.86" width="6.85" height="1.71"/>
          <line class="cls-1" x1="31.61" y1="14.89" x2="36.9" y2="14.89"/>
          <g>
            <g>
              <line class="cls-1" x1="34.42" y1="10.9" x2="33.2" y2="12.11"/>
              <path class="cls-1" d="M34.42,10.9a1.81,1.81,0,0,1-.47.75,1.79,1.79,0,0,1-.75.46,1.79,1.79,0,0,1,.46-.75A1.77,1.77,0,0,1,34.42,10.9Z"/>
            </g>
            <g>
              <line class="cls-1" x1="36.02" y1="10.51" x2="32.81" y2="13.72"/>
              <path class="cls-1" d="M36,10.51a11.2,11.2,0,0,1-1.46,1.75,11.2,11.2,0,0,1-1.75,1.46A12.66,12.66,0,0,1,36,10.51Z"/>
            </g>
          </g>
          <g>
            <g>
              <line class="cls-1" x1="34.42" y1="16.54" x2="33.2" y2="17.76"/>
              <path class="cls-1" d="M34.42,16.54a1.81,1.81,0,0,1-.47.75,1.92,1.92,0,0,1-.75.47,1.86,1.86,0,0,1,1.22-1.22Z"/>
            </g>
            <g>
              <line class="cls-1" x1="36.02" y1="16.15" x2="32.81" y2="19.36"/>
              <path class="cls-1" d="M36,16.15a11.2,11.2,0,0,1-1.46,1.75,11.2,11.2,0,0,1-1.75,1.46A12.66,12.66,0,0,1,36,16.15Z"/>
            </g>
          </g>
        </g>
        <g>
          <rect class="cls-1" x="43.52" y="9.13" width="5.28" height="11.52"/>
          <rect class="cls-1" x="42.74" y="20.86" width="6.85" height="1.71"/>
          <line class="cls-1" x1="43.52" y1="14.89" x2="48.8" y2="14.89"/>
          <g>
            <g>
              <line class="cls-1" x1="46.32" y1="10.9" x2="45.1" y2="12.11"/>
              <path class="cls-1" d="M46.32,10.9a1.79,1.79,0,0,1-.46.75,1.77,1.77,0,0,1-.76.46,1.92,1.92,0,0,1,.47-.75A1.79,1.79,0,0,1,46.32,10.9Z"/>
            </g>
            <g>
              <line class="cls-1" x1="47.93" y1="10.51" x2="44.72" y2="13.72"/>
              <path class="cls-1" d="M47.93,10.51a11.2,11.2,0,0,1-1.46,1.75,11.2,11.2,0,0,1-1.75,1.46,12.66,12.66,0,0,1,3.21-3.21Z"/>
            </g>
          </g>
          <g>
            <g>
              <line class="cls-1" x1="46.32" y1="16.54" x2="45.1" y2="17.76"/>
              <path class="cls-1" d="M46.32,16.54a1.79,1.79,0,0,1-.46.75,1.89,1.89,0,0,1-.76.47,1.89,1.89,0,0,1,.47-.76A1.79,1.79,0,0,1,46.32,16.54Z"/>
            </g>
            <g>
              <line class="cls-1" x1="47.93" y1="16.15" x2="44.72" y2="19.36"/>
              <path class="cls-1" d="M47.93,16.15a11.2,11.2,0,0,1-1.46,1.75,11.2,11.2,0,0,1-1.75,1.46,12.66,12.66,0,0,1,3.21-3.21Z"/>
            </g>
          </g>
        </g>
        <g>
          <rect class="cls-1" x="19.71" y="26.15" width="5.28" height="11.52"/>
          <rect class="cls-1" x="18.92" y="37.88" width="6.85" height="1.71"/>
          <line class="cls-1" x1="19.71" y1="31.91" x2="24.99" y2="31.91"/>
          <g>
            <g>
              <line class="cls-1" x1="22.51" y1="27.92" x2="21.29" y2="29.14"/>
              <path class="cls-1" d="M22.51,27.92a1.86,1.86,0,0,1-1.22,1.22,1.92,1.92,0,0,1,1.22-1.22Z"/>
            </g>
            <g>
              <line class="cls-1" x1="24.12" y1="27.54" x2="20.91" y2="30.75"/>
              <path class="cls-1" d="M24.12,27.54a12.66,12.66,0,0,1-3.21,3.21,11.86,11.86,0,0,1,3.21-3.21Z"/>
            </g>
          </g>
          <g>
            <g>
              <line class="cls-1" x1="22.51" y1="33.56" x2="21.29" y2="34.78"/>
              <path class="cls-1" d="M22.51,33.56a1.87,1.87,0,0,1-.46.76,1.77,1.77,0,0,1-.76.46,1.92,1.92,0,0,1,1.22-1.22Z"/>
            </g>
            <g>
              <line class="cls-1" x1="24.12" y1="33.18" x2="20.91" y2="36.39"/>
              <path class="cls-1" d="M24.12,33.18a12.66,12.66,0,0,1-3.21,3.21,12.25,12.25,0,0,1,3.21-3.21Z"/>
            </g>
          </g>
        </g>
        <g>
          <rect class="cls-1" x="31.61" y="26.15" width="5.28" height="11.52"/>
          <rect class="cls-1" x="30.83" y="37.88" width="6.85" height="1.71"/>
          <line class="cls-1" x1="31.61" y1="31.91" x2="36.9" y2="31.91"/>
          <g>
            <g>
              <line class="cls-1" x1="34.42" y1="27.92" x2="33.2" y2="29.14"/>
              <path class="cls-1" d="M34.42,27.92a1.78,1.78,0,0,1-.47.76,1.9,1.9,0,0,1-.75.46,1.92,1.92,0,0,1,1.22-1.22Z"/>
            </g>
            <g>
              <line class="cls-1" x1="36.02" y1="27.54" x2="32.81" y2="30.75"/>
              <path class="cls-1" d="M36,27.54a12.66,12.66,0,0,1-3.21,3.21A12.4,12.4,0,0,1,34.27,29,12.25,12.25,0,0,1,36,27.54Z"/>
            </g>
          </g>
          <g>
            <g>
              <line class="cls-1" x1="34.42" y1="33.56" x2="33.2" y2="34.78"/>
              <path class="cls-1" d="M34.42,33.56a1.92,1.92,0,0,1-1.22,1.22,1.92,1.92,0,0,1,1.22-1.22Z"/>
            </g>
            <g>
              <line class="cls-1" x1="36.02" y1="33.18" x2="32.81" y2="36.39"/>
              <path class="cls-1" d="M36,33.18a12.66,12.66,0,0,1-3.21,3.21A12.66,12.66,0,0,1,36,33.18Z"/>
            </g>
          </g>
        </g>
        <g>
          <rect class="cls-1" x="43.52" y="26.15" width="5.28" height="11.52"/>
          <rect class="cls-1" x="42.74" y="37.88" width="6.85" height="1.71"/>
          <line class="cls-1" x1="43.52" y1="31.91" x2="48.8" y2="31.91"/>
          <g>
            <g>
              <line class="cls-1" x1="46.32" y1="27.92" x2="45.1" y2="29.14"/>
              <path class="cls-1" d="M46.32,27.92a1.77,1.77,0,0,1-.46.76,1.87,1.87,0,0,1-.76.46,1.92,1.92,0,0,1,.47-.75A1.81,1.81,0,0,1,46.32,27.92Z"/>
            </g>
            <g>
              <line class="cls-1" x1="47.93" y1="27.54" x2="44.72" y2="30.75"/>
              <path class="cls-1" d="M47.93,27.54a12.66,12.66,0,0,1-3.21,3.21,12.25,12.25,0,0,1,3.21-3.21Z"/>
            </g>
          </g>
          <g>
            <g>
              <line class="cls-1" x1="46.32" y1="33.56" x2="45.1" y2="34.78"/>
              <path class="cls-1" d="M46.32,33.56a1.86,1.86,0,0,1-1.22,1.22,1.92,1.92,0,0,1,.47-.75A1.81,1.81,0,0,1,46.32,33.56Z"/>
            </g>
            <g>
              <line class="cls-1" x1="47.93" y1="33.18" x2="44.72" y2="36.39"/>
              <path class="cls-1" d="M47.93,33.18a12.66,12.66,0,0,1-3.21,3.21,12.66,12.66,0,0,1,3.21-3.21Z"/>
            </g>
          </g>
        </g>
        <rect class="cls-1" x="12.11" y="2.65" width="44.3" height="4.57"/>
        <g>
          <path class="cls-1" d="M20,35.83h0a.44.44,0,0,1,.44-.44h.25a.44.44,0,0,1-.44.44Z"/>
          <path class="cls-1" d="M20,35.09h0a.44.44,0,0,1,.43-.45h.25a.43.43,0,0,1-.43.44Z"/>
          <path class="cls-1" d="M20,35.48h0a.44.44,0,0,0-.44-.44h-.25a.44.44,0,0,0,.44.43Z"/>
          <line class="cls-1" x1="20" y1="36.6" x2="20" y2="34.77"/>
          <rect class="cls-1" x="19.03" y="36.18" width="1.93" height="0.38" transform="translate(-0.17 0.09) rotate(-0.26)"/>
          <path class="cls-1" d="M20.53,37.88H19.48a.16.16,0,0,1-.16-.15l-.12-1.18h1.61l-.12,1.18A.15.15,0,0,1,20.53,37.88Z"/>
        </g>
        <g>
          <path class="cls-1" d="M48,18.93h0a.44.44,0,0,1,.44-.44h.24a.43.43,0,0,1-.43.44Z"/>
          <path class="cls-1" d="M48,18.18h0a.44.44,0,0,1,.44-.44h.25a.44.44,0,0,1-.44.44Z"/>
          <path class="cls-1" d="M47.89,18.58h0a.45.45,0,0,0-.45-.44H47.2a.44.44,0,0,0,.44.44Z"/>
          <line class="cls-1" x1="47.93" y1="19.69" x2="47.92" y2="17.86"/>
          <rect class="cls-1" x="46.96" y="19.28" width="1.93" height="0.38" transform="translate(-0.09 0.22) rotate(-0.26)"/>
          <path class="cls-1" d="M48.46,21H47.41a.16.16,0,0,1-.16-.14l-.12-1.18h1.6l-.11,1.18A.16.16,0,0,1,48.46,21Z"/>
        </g>
        <rect class="cls-1" x="23.43" y="45.97" width="21.65" height="14.68"/>
        <rect class="cls-1" x="24.51" y="47.09" width="19.49" height="13.57"/>
        <g>
          <line class="cls-1" x1="40.97" y1="47.75" x2="26.9" y2="59.17"/>
          <path class="cls-1" d="M41,47.75q-1.68,1.52-3.42,3l-3.48,2.89-3.55,2.82q-1.78,1.39-3.62,2.73c1.13-1,2.26-2,3.42-3L33.8,53.3l3.55-2.82Q39.14,49.08,41,47.75Z"/>
        </g>
        <g>
          <line class="cls-1" x1="38.76" y1="51.71" x2="30.96" y2="58.05"/>
          <path class="cls-1" d="M38.76,51.71C37.57,52.9,36.27,54,35,55s-2.62,2.09-4,3c1.19-1.19,2.48-2.26,3.77-3.33S37.35,52.64,38.76,51.71Z"/>
        </g>
        <line class="cls-1" x1="34.26" y1="47.09" x2="34.26" y2="60.66"/>
        <g>
          <circle class="cls-1" cx="35.35" cy="53.87" r="0.28"/>
          <circle class="cls-1" cx="33.17" cy="53.87" r="0.28"/>
        </g>
        <path class="cls-1" d="M31.48,46.48a2.78,2.78,0,1,1,5.55,0"/>
        <rect class="cls-1" x="15.45" y="26.57" width="2.68" height="1.35"/>
        <rect class="cls-1" x="50.07" y="45.09" width="2.68" height="1.35"/>
        <rect class="cls-1" x="46.96" y="45.09" width="2.68" height="1.35"/>
        <rect class="cls-1" x="26.9" y="9.13" width="2.68" height="1.35"/>
        <rect class="cls-1" x="17.58" y="54.2" width="2.68" height="1.35"/>
        <rect class="cls-1" x="48.5" y="43.51" width="2.68" height="1.35"/>
        <rect class="cls-1" x="39.35" y="35.6" width="2.68" height="1.35"/>
        <rect class="cls-1" x="52.09" y="18.36" width="1.34" height="1.35"/>
      </g>
      <g>
        <rect class="cls-11" x="15.08" y="5.7" width="38.34" height="54.96"/>
        <g>
          <line class="cls-13" x1="15.08" y1="24.49" x2="53.43" y2="24.49"/>
          <line class="cls-13" x1="15.08" y1="41.86" x2="53.43" y2="41.86"/>
        </g>
        <g>
          <rect class="cls-14" x="19.71" y="9.13" width="5.28" height="11.52"/>
          <rect class="cls-3" x="18.92" y="20.86" width="6.85" height="1.71"/>
          <line class="cls-15" x1="19.71" y1="14.89" x2="24.99" y2="14.89"/>
          <g class="cls-16">
            <path class="cls-17" d="M22.51,10.9a1.9,1.9,0,0,1-.46.75,1.77,1.77,0,0,1-.76.46,1.87,1.87,0,0,1,1.22-1.21Z"/>
            <path class="cls-17" d="M24.12,10.51a11.78,11.78,0,0,1-1.46,1.75,11.68,11.68,0,0,1-1.75,1.46,12.25,12.25,0,0,1,3.21-3.21Z"/>
          </g>
          <g class="cls-16">
            <path class="cls-17" d="M22.51,16.54a1.92,1.92,0,0,1-1.22,1.22,1.87,1.87,0,0,1,.46-.76A1.9,1.9,0,0,1,22.51,16.54Z"/>
            <path class="cls-17" d="M24.12,16.15a11.78,11.78,0,0,1-1.46,1.75,11.68,11.68,0,0,1-1.75,1.46,12.25,12.25,0,0,1,3.21-3.21Z"/>
          </g>
        </g>
        <g>
          <rect class="cls-14" x="31.61" y="9.13" width="5.28" height="11.52"/>
          <rect class="cls-3" x="30.83" y="20.86" width="6.85" height="1.71"/>
          <line class="cls-15" x1="31.61" y1="14.89" x2="36.9" y2="14.89"/>
          <g class="cls-16">
            <path class="cls-17" d="M34.42,10.9a1.81,1.81,0,0,1-.47.75,1.79,1.79,0,0,1-.75.46,1.79,1.79,0,0,1,.46-.75A1.77,1.77,0,0,1,34.42,10.9Z"/>
            <path class="cls-17" d="M36,10.51a11.2,11.2,0,0,1-1.46,1.75,11.2,11.2,0,0,1-1.75,1.46A12.66,12.66,0,0,1,36,10.51Z"/>
          </g>
          <g class="cls-16">
            <path class="cls-17" d="M34.42,16.54a1.81,1.81,0,0,1-.47.75,1.92,1.92,0,0,1-.75.47,1.86,1.86,0,0,1,1.22-1.22Z"/>
            <path class="cls-17" d="M36,16.15a11.2,11.2,0,0,1-1.46,1.75,11.2,11.2,0,0,1-1.75,1.46A12.66,12.66,0,0,1,36,16.15Z"/>
          </g>
        </g>
        <g>
          <rect class="cls-14" x="43.52" y="9.13" width="5.28" height="11.52"/>
          <rect class="cls-3" x="42.74" y="20.86" width="6.85" height="1.71"/>
          <line class="cls-15" x1="43.52" y1="14.89" x2="48.8" y2="14.89"/>
          <g class="cls-16">
            <path class="cls-17" d="M46.32,10.9a1.79,1.79,0,0,1-.46.75,1.77,1.77,0,0,1-.76.46,1.92,1.92,0,0,1,.47-.75A1.79,1.79,0,0,1,46.32,10.9Z"/>
            <path class="cls-17" d="M47.93,10.51a11.2,11.2,0,0,1-1.46,1.75,11.2,11.2,0,0,1-1.75,1.46,12.66,12.66,0,0,1,3.21-3.21Z"/>
          </g>
          <g class="cls-16">
            <path class="cls-17" d="M46.32,16.54a1.79,1.79,0,0,1-.46.75,1.89,1.89,0,0,1-.76.47,1.89,1.89,0,0,1,.47-.76A1.79,1.79,0,0,1,46.32,16.54Z"/>
            <path class="cls-17" d="M47.93,16.15a11.2,11.2,0,0,1-1.46,1.75,11.2,11.2,0,0,1-1.75,1.46,12.66,12.66,0,0,1,3.21-3.21Z"/>
          </g>
        </g>
        <g>
          <rect class="cls-14" x="19.71" y="26.15" width="5.28" height="11.52"/>
          <rect class="cls-3" x="18.92" y="37.88" width="6.85" height="1.71"/>
          <line class="cls-15" x1="19.71" y1="31.91" x2="24.99" y2="31.91"/>
          <g class="cls-16">
            <path class="cls-17" d="M22.51,27.92a1.86,1.86,0,0,1-1.22,1.22,1.92,1.92,0,0,1,1.22-1.22Z"/>
            <path class="cls-17" d="M24.12,27.54a12.66,12.66,0,0,1-3.21,3.21,11.86,11.86,0,0,1,3.21-3.21Z"/>
          </g>
          <g class="cls-16">
            <path class="cls-17" d="M22.51,33.56a1.87,1.87,0,0,1-.46.76,1.77,1.77,0,0,1-.76.46,1.92,1.92,0,0,1,1.22-1.22Z"/>
            <path class="cls-17" d="M24.12,33.18a12.66,12.66,0,0,1-3.21,3.21,12.25,12.25,0,0,1,3.21-3.21Z"/>
          </g>
        </g>
        <g>
          <rect class="cls-14" x="31.61" y="26.15" width="5.28" height="11.52"/>
          <rect class="cls-3" x="30.83" y="37.88" width="6.85" height="1.71"/>
          <line class="cls-15" x1="31.61" y1="31.91" x2="36.9" y2="31.91"/>
          <g class="cls-16">
            <path class="cls-17" d="M34.42,27.92a1.78,1.78,0,0,1-.47.76,1.9,1.9,0,0,1-.75.46,1.92,1.92,0,0,1,1.22-1.22Z"/>
            <path class="cls-17" d="M36,27.54a12.66,12.66,0,0,1-3.21,3.21A12.4,12.4,0,0,1,34.27,29,12.25,12.25,0,0,1,36,27.54Z"/>
          </g>
          <g class="cls-16">
            <path class="cls-17" d="M34.42,33.56a1.92,1.92,0,0,1-1.22,1.22,1.92,1.92,0,0,1,1.22-1.22Z"/>
            <path class="cls-17" d="M36,33.18a12.66,12.66,0,0,1-3.21,3.21A12.66,12.66,0,0,1,36,33.18Z"/>
          </g>
        </g>
        <g>
          <rect class="cls-14" x="43.52" y="26.15" width="5.28" height="11.52"/>
          <rect class="cls-3" x="42.74" y="37.88" width="6.85" height="1.71"/>
          <line class="cls-15" x1="43.52" y1="31.91" x2="48.8" y2="31.91"/>
          <g class="cls-16">
            <path class="cls-17" d="M46.32,27.92a1.77,1.77,0,0,1-.46.76,1.87,1.87,0,0,1-.76.46,1.92,1.92,0,0,1,.47-.75A1.81,1.81,0,0,1,46.32,27.92Z"/>
            <path class="cls-17" d="M47.93,27.54a12.66,12.66,0,0,1-3.21,3.21,12.25,12.25,0,0,1,3.21-3.21Z"/>
          </g>
          <g class="cls-16">
            <path class="cls-17" d="M46.32,33.56a1.86,1.86,0,0,1-1.22,1.22,1.92,1.92,0,0,1,.47-.75A1.81,1.81,0,0,1,46.32,33.56Z"/>
            <path class="cls-17" d="M47.93,33.18a12.66,12.66,0,0,1-3.21,3.21,12.66,12.66,0,0,1,3.21-3.21Z"/>
          </g>
        </g>
        <rect class="cls-12" x="12.11" y="2.65" width="44.3" height="4.57"/>
        <g>
          <path class="cls-18" d="M20,35.83h0a.44.44,0,0,1,.44-.44h.25a.44.44,0,0,1-.44.44Z"/>
          <path class="cls-18" d="M20,35.09h0a.44.44,0,0,1,.43-.45h.25a.43.43,0,0,1-.43.44Z"/>
          <path class="cls-18" d="M20,35.48h0a.44.44,0,0,0-.44-.44h-.25a.44.44,0,0,0,.44.43Z"/>
          <line class="cls-19" x1="20" y1="36.6" x2="20" y2="34.77"/>
          <rect class="cls-20" x="19.03" y="36.18" width="1.93" height="0.38" transform="translate(-0.17 0.09) rotate(-0.26)"/>
          <path class="cls-20" d="M20.53,37.88H19.48a.16.16,0,0,1-.16-.15l-.12-1.18h1.61l-.12,1.18A.15.15,0,0,1,20.53,37.88Z"/>
        </g>
        <g>
          <path class="cls-18" d="M48,18.93h0a.44.44,0,0,1,.44-.44h.24a.43.43,0,0,1-.43.44Z"/>
          <path class="cls-18" d="M48,18.18h0a.44.44,0,0,1,.44-.44h.25a.44.44,0,0,1-.44.44Z"/>
          <path class="cls-18" d="M47.89,18.58h0a.45.45,0,0,0-.45-.44H47.2a.44.44,0,0,0,.44.44Z"/>
          <line class="cls-19" x1="47.93" y1="19.69" x2="47.92" y2="17.86"/>
          <rect class="cls-20" x="46.96" y="19.28" width="1.93" height="0.38" transform="translate(-0.09 0.22) rotate(-0.26)"/>
          <path class="cls-20" d="M48.46,21H47.41a.16.16,0,0,1-.16-.14l-.12-1.18h1.6l-.11,1.18A.16.16,0,0,1,48.46,21Z"/>
        </g>
        <rect class="cls-21" x="23.43" y="45.97" width="21.65" height="14.68"/>
        <rect class="cls-14" x="24.51" y="47.09" width="19.49" height="13.57"/>
        <g class="cls-16">
          <path class="cls-17" d="M41,47.75q-1.68,1.52-3.42,3l-3.48,2.89-3.55,2.82q-1.78,1.39-3.62,2.73c1.13-1,2.26-2,3.42-3L33.8,53.3l3.55-2.82Q39.14,49.08,41,47.75Z"/>
        </g>
        <g class="cls-16">
          <path class="cls-17" d="M38.76,51.71C37.57,52.9,36.27,54,35,55s-2.62,2.09-4,3c1.19-1.19,2.48-2.26,3.77-3.33S37.35,52.64,38.76,51.71Z"/>
        </g>
        <line class="cls-22" x1="34.26" y1="47.09" x2="34.26" y2="60.66"/>
        <g>
          <circle class="cls-21" cx="35.35" cy="53.87" r="0.28"/>
          <circle class="cls-21" cx="33.17" cy="53.87" r="0.28"/>
        </g>
        <path class="cls-21" d="M31.48,46.48a2.78,2.78,0,1,1,5.55,0"/>
        <rect class="cls-23" x="15.45" y="26.57" width="2.68" height="1.35"/>
        <rect class="cls-23" x="50.07" y="45.09" width="2.68" height="1.35"/>
        <rect class="cls-23" x="46.96" y="45.09" width="2.68" height="1.35"/>
        <rect class="cls-23" x="26.9" y="9.13" width="2.68" height="1.35"/>
        <rect class="cls-23" x="17.58" y="54.2" width="2.68" height="1.35"/>
        <rect class="cls-23" x="48.5" y="43.51" width="2.68" height="1.35"/>
        <rect class="cls-23" x="39.35" y="35.6" width="2.68" height="1.35"/>
        <rect class="cls-23" x="52.09" y="18.36" width="1.34" height="1.35"/>
      </g>
    </g>
  </g>
</svg>
