<svg id="Capa_1" data-name="Capa 1" xmlns="http://www.w3.org/2000/svg" viewBox="0 0 68.01 64.2">
  <defs>
    <style>
      .cls-1 {
        fill: #f3d6ed;
      }

      .cls-10, .cls-11, .cls-12, .cls-2, .cls-7, .cls-8, .cls-9 {
        fill: none;
      }

      .cls-2 {
        stroke: #fff;
        stroke-linecap: round;
        stroke-linejoin: round;
        stroke-width: 2px;
      }

      .cls-3 {
        fill: #7f8ed4;
      }

      .cls-4 {
        fill: #5656bd;
      }

      .cls-5 {
        fill: #f5ffdc;
      }

      .cls-6 {
        fill: #bdf5ea;
      }

      .cls-7 {
        stroke: #5656bd;
      }

      .cls-10, .cls-11, .cls-12, .cls-7, .cls-8, .cls-9 {
        stroke-miterlimit: 10;
      }

      .cls-10, .cls-8 {
        stroke: #bdf5ea;
      }

      .cls-9 {
        stroke: #7f8ed4;
      }

      .cls-10, .cls-12 {
        stroke-width: 0.75px;
      }

      .cls-11, .cls-12 {
        stroke: #f5ffdc;
      }
    </style>
  </defs>
  <g>
    <circle class="cls-1" cx="32.49" cy="31.41" r="25.09"/>
    <g>
      <g>
        <path class="cls-2" d="M62.64,24.6a22.85,22.85,0,0,1,1.73,9.26V34A11.2,11.2,0,0,1,56.53,44.3,79,79,0,0,1,32.48,48a79.44,79.44,0,0,1-24-3.79A11.22,11.22,0,0,1,.6,33.92c0-.26,0-.52,0-.78a20.07,20.07,0,0,1,2-8.54A48.13,48.13,0,0,0,32.48,35.3,46.77,46.77,0,0,0,62.64,24.6Z"/>
        <ellipse class="cls-2" cx="32.63" cy="25.55" rx="30.14" ry="10.74"/>
        <path class="cls-2" d="M10.26,26.21a44.3,44.3,0,0,1,43.72,0S33.94,43,10.26,26.21Z"/>
        <g>
          <path class="cls-2" d="M54.11,26.21s-21.62,16.67-43.72,0"/>
          <path class="cls-2" d="M54.11,26.21A37.67,37.67,0,0,1,43.8,31.83,37.56,37.56,0,0,1,32.2,34a36.49,36.49,0,0,1-5.91-.44,33.08,33.08,0,0,1-5.73-1.5,35.86,35.86,0,0,1-10.17-5.89,43.16,43.16,0,0,0,10.38,5.26,42.43,42.43,0,0,0,5.64,1.35,36,36,0,0,0,5.78.36,39.28,39.28,0,0,0,11.4-2A43.25,43.25,0,0,0,49,29,38.57,38.57,0,0,0,54.11,26.21Z"/>
        </g>
        <path class="cls-2" d="M36.87,41.06a1,1,0,0,0,.46-.87,1.05,1.05,0,1,0-2,.44H29.65a1.05,1.05,0,1,0-2-.44,1,1,0,0,0,.46.87A1.06,1.06,0,0,0,28.69,43a1.06,1.06,0,0,0,1.06-1.06.5.5,0,0,0,0-.12h5.51a.49.49,0,0,0,0,.12,1.05,1.05,0,1,0,1.64-.87Z"/>
      </g>
      <g>
        <path class="cls-3" d="M62.64,24.6a22.85,22.85,0,0,1,1.73,9.26V34A11.2,11.2,0,0,1,56.53,44.3,79,79,0,0,1,32.48,48a79.44,79.44,0,0,1-24-3.79A11.22,11.22,0,0,1,.6,33.92c0-.26,0-.52,0-.78a20.07,20.07,0,0,1,2-8.54A48.13,48.13,0,0,0,32.48,35.3,46.77,46.77,0,0,0,62.64,24.6Z"/>
        <ellipse class="cls-4" cx="32.63" cy="25.55" rx="30.14" ry="10.74"/>
        <path class="cls-5" d="M10.26,26.21a44.3,44.3,0,0,1,43.72,0S33.94,43,10.26,26.21Z"/>
        <path class="cls-6" d="M54.11,26.21A37.67,37.67,0,0,1,43.8,31.83,37.56,37.56,0,0,1,32.2,34a36.49,36.49,0,0,1-5.91-.44,33.08,33.08,0,0,1-5.73-1.5,35.86,35.86,0,0,1-10.17-5.89,43.16,43.16,0,0,0,10.38,5.26,42.43,42.43,0,0,0,5.64,1.35,36,36,0,0,0,5.78.36,39.28,39.28,0,0,0,11.4-2A43.25,43.25,0,0,0,49,29,38.57,38.57,0,0,0,54.11,26.21Z"/>
        <path class="cls-5" d="M36.87,41.06a1,1,0,0,0,.46-.87,1.05,1.05,0,1,0-2,.44H29.65a1.05,1.05,0,1,0-2-.44,1,1,0,0,0,.46.87A1.06,1.06,0,0,0,28.69,43a1.06,1.06,0,0,0,1.06-1.06.5.5,0,0,0,0-.12h5.51a.49.49,0,0,0,0,.12,1.05,1.05,0,1,0,1.64-.87Z"/>
      </g>
    </g>
    <circle class="cls-3" cx="5.08" cy="4.06" r="1.38"/>
    <circle class="cls-7" cx="54.11" cy="60.19" r="2.63"/>
    <circle class="cls-3" cx="6.45" cy="61.42" r="0.56"/>
    <path class="cls-8" d="M55.31,6.68a3.2,3.2,0,0,1,1.26,3"/>
    <path class="cls-9" d="M1.42,17.41a4,4,0,0,0-.8,3.52"/>
    <path class="cls-1" d="M54.08,49.81A1.93,1.93,0,0,1,56,48.69"/>
    <path class="cls-10" d="M15.26,53.3a2.77,2.77,0,0,1,1.25,2.83"/>
    <path class="cls-11" d="M34.16,1.89A1.57,1.57,0,0,1,32,2"/>
    <polygon class="cls-6" points="30.51 61.42 30.74 62.81 30.98 64.2 29.66 63.71 28.33 63.22 29.42 62.32 30.51 61.42"/>
    <polygon class="cls-12" points="19.42 4.04 19.66 5.44 19.89 6.83 18.57 6.34 17.25 5.84 18.33 4.95 19.42 4.04"/>
    <polygon class="cls-5" points="3.34 46.61 3.57 48 3.81 49.39 2.48 48.9 1.16 48.41 2.25 47.51 3.34 46.61"/>
    <polygon class="cls-4" points="67.54 28.52 67.78 29.91 68.01 31.3 66.69 30.81 65.36 30.32 66.45 29.42 67.54 28.52"/>
    <polygon class="cls-6" points="65.21 0 65.33 0.7 65.44 1.39 64.78 1.15 64.12 0.9 64.67 0.45 65.21 0"/>
  </g>
</svg>
