<svg id="Capa_1" data-name="Capa 1" xmlns="http://www.w3.org/2000/svg" viewBox="0 0 39.37 75.37">
  <defs>
    <style>
      .cls-1 {
        fill: #5656bf;
      }
    </style>
  </defs>
  <path class="cls-1" d="M0,7.51A36.9,36.9,0,0,1,3.8,4.6,27.25,27.25,0,0,1,8.27,2.2,27.83,27.83,0,0,1,13.48.59,29.79,29.79,0,0,1,19.56,0a25.2,25.2,0,0,1,8.09,1.23,18.15,18.15,0,0,1,6.26,3.49,15.71,15.71,0,0,1,4,5.49,17.63,17.63,0,0,1,1.43,7.2,18.19,18.19,0,0,1-1.12,6.72,19.11,19.11,0,0,1-2.81,4.93,21.42,21.42,0,0,1-3.7,3.62l-3.81,2.89a31,31,0,0,0-3.09,2.65,5.29,5.29,0,0,0-1.55,2.94l-1.18,7.45H13.48l-.87-8.32a6.81,6.81,0,0,1,.69-4.21A12.79,12.79,0,0,1,16,32.76a34.25,34.25,0,0,1,3.7-2.91,33.65,33.65,0,0,0,3.83-3.07,16.14,16.14,0,0,0,3-3.72,9.66,9.66,0,0,0,1.2-4.93A7.57,7.57,0,0,0,27,14.84a7.38,7.38,0,0,0-1.92-2.51,8.72,8.72,0,0,0-2.93-1.61,12,12,0,0,0-3.71-.56,16.6,16.6,0,0,0-4.92.64,18,18,0,0,0-3.42,1.43c-.94.53-1.73,1-2.38,1.43A3.22,3.22,0,0,1,6,14.3a2.78,2.78,0,0,1-2.65-1.53Zm9.65,60.2a7.88,7.88,0,0,1,.59-3,7.41,7.41,0,0,1,1.61-2.45,7.69,7.69,0,0,1,2.45-1.64A7.81,7.81,0,0,1,17.36,60a7.68,7.68,0,0,1,3,.61,8.16,8.16,0,0,1,2.45,1.64,7.68,7.68,0,0,1,0,10.93,7.73,7.73,0,0,1-2.45,1.61,7.84,7.84,0,0,1-3,.58,8,8,0,0,1-3.06-.58,7.3,7.3,0,0,1-2.45-1.61,7.42,7.42,0,0,1-1.61-2.43A7.81,7.81,0,0,1,9.65,67.71Z"/>
</svg>
